<svg xmlns="http://www.w3.org/2000/svg" xmlns:xlink="http://www.w3.org/1999/xlink" class="svg-canvas" viewBox="230.14891456027 34.107711595381 339.71795126366 339.71795126366" width="1600" height="1600" preserveAspectRatio="none" version="1.1" style="background-color:#000000"><!--滤镜--><defs></defs><!-- 背景 --><g id="background"><rect x="0" y="0" fill="#000000" width="800" height="600"></rect></g><!--元素--><g id="shape_nyRZ3CSQ2D" ref="shape_nyRZ3CSQ2D" key="shape_nyRZ3CSQ2D" mask=""><g transform="translate(297.10660724981966,120.00000000000003) rotate(0,102.90128294227809,83.96668722721101) scale(1,1)" style="opacity: 1;mix-blend-mode: undefined;" filter=""><!--普通元素--><svg xmlns="http://www.w3.org/2000/svg" xmlns:xlink="http://www.w3.org/1999/xlink" version="1.1" id="圖層_1" x="0px" y="0px" viewBox="-0.02623462677001953 0.0293731689453125 146.28884887695312 119.37062072753906" style="enable-background:new 0 0 146.3 119.3;" xml:space="preserve" width="205.80256588455617" height="167.93337445442202" class="style-removed" preserveAspectRatio="none" data-parent="shape_nyRZ3CSQ2D">

<path d="M142.5,32.3C132.2,10.9,96.2-4,67,1c-28.2,4.8-53,25.7-62,42.9c-5.6,10.7-6.6,20.4-2.6,26.6  c2.2,3.5,7.2,7.5,17.9,6.9c13.8-0.7,24.1-5.9,31.6-9.6l0.1,0c-2.1,7-3,15.6,2.4,21.1c1.3,1.2,2.8,2,4.5,2.6l0,0.2c0.1,0,0.2,0,0.3,0  c3.2,1,7,1,10.6,1c5.3,0,10.8,0.1,14.2,2.7c2,1.6,3.9,4.9,5.9,8.3c4.1,7.1,9.1,15.7,18.9,15.7c0.8,0,1.6-0.1,2.4-0.2  c3.5-0.5,6.1-2,7.8-4.5c4-6,1.4-15.7-1-25c-1.1-4.2-2.1-8.1-2.3-10.9c-0.3-5.4,1.9-6,8.5-6.9c1.9-0.3,3.9-0.5,5.9-1.1  c4.7-1.3,10.8-5.8,14-12.9C146.4,52.5,148.1,43.9,142.5,32.3z M68,6.7c4.5-0.8,9.3-1,14.1-0.8c-3.1,1.1-6.2,2.7-9,4.9  c-4.3,3.3-9.2,8.6-14.5,14.2c-9.8,10.6-21,22.5-31.7,26.2c-8.1,2.8-15.6,1.6-19.2,0.7c0.7-1.8,1.4-3.6,2.4-5.5  C17.4,32.9,40.1,11.5,68,6.7z M20,71.5c-6.3,0.3-10.6-1.1-12.6-4.2c-1.5-2.4-1.8-6-1-10.2c2.2,0.6,5.7,1.2,9.8,1.2  c3.7,0,8-0.5,12.4-2c11.9-4.1,23.5-16.5,33.8-27.6C67.5,23.2,72.4,18,76.3,15c8.4-6.5,19.2-6.9,27.7-4.9c5.1,1.7,9.9,3.8,14.3,6.3  c-9,0-19.2,3.1-26.7,8.8c-4.2,3.3-9,8.3-14,13.6c-7.7,8.1-16.1,17-24.7,22.2c-0.5,0.1-1,0.2-1.5,0.4l-2.1,1  C41.8,66.2,32.6,70.8,20,71.5z M58,64c8.3-5.6,16.2-13.9,23.3-21.5c4.9-5.2,9.5-10.1,13.4-13.1c10.4-8.1,26.1-9.5,33.7-5.7  c3.8,3.4,6.8,7.1,8.7,11.1c0.5,0.9,0.9,1.9,1.2,2.8c-8.4-2.4-21.5-3.8-32.5,4.7c-4.1,3.2-7.5,8.6-11.5,14.8  C86.8,69.3,78.1,83,61.2,86c-1.1-0.3-2-0.7-2.6-1.3c-4.2-4.2-1.7-13.3-0.4-17.1C58.7,66.4,58.5,65.1,58,64z M138.7,55.4  c-2.4,5.3-7,8.7-10.2,9.7c-1.5,0.4-3.3,0.7-5,0.9c-5.7,0.8-14.3,2-13.6,13.1c0.2,3.3,1.3,7.6,2.5,12c1.9,7.3,4.4,16.5,1.8,20.3  c-0.5,0.7-1.3,1.6-3.7,2c-7,1-10.7-4.4-15.5-12.7c-2.3-3.9-4.4-7.6-7.3-9.9c-3.7-3-8.5-3.8-13.2-4C85.9,80.4,92.9,69.4,98.9,60  c3.7-5.8,6.9-10.8,10.3-13.5c10.6-8.2,23.9-5.3,30.9-2.8C140.7,47.9,140.3,51.8,138.7,55.4z" fill="#F40E0E" stroke-width="0"></path>
</svg></g></g></svg>